# Blender v2.90.0 OBJ File: ''
# www.blender.org
mtllib untitled.mtl
o Cube
v 1.000000 0.030000 -1.380000
v 1.000000 -0.030000 -1.380000
v 1.000000 0.030000 1.380000
v 1.000000 -0.030000 1.380000
v -1.000000 0.030000 -1.380000
v -1.000000 -0.030000 -1.380000
v -1.000000 0.030000 1.380000
v -1.000000 -0.030000 1.380000
vt -0.008229 -0.012381
vt 1.001719 -0.014265
vt 1.011961 0.998234
vt -0.010883 0.998354
vt -0.404630 0.771227
vt -0.155081 0.771238
vt -0.153519 1.021482
vt -0.404654 1.021211
vt -0.404654 0.021211
vt -0.154654 0.021211
vt -0.154654 0.271211
vt -0.404298 0.270487
vt -0.654978 0.516481
vt -0.404584 0.521153
vt -0.654654 0.771211
vt -0.154431 0.521439
vn 0.0000 1.0000 0.0000
vn 0.0000 0.0000 1.0000
vn -1.0000 0.0000 0.0000
vn 0.0000 -1.0000 0.0000
vn 1.0000 0.0000 0.0000
vn 0.0000 0.0000 -1.0000
usemtl Material
s off
f 1/1/1 5/2/1 7/3/1 3/4/1
f 4/5/2 3/6/2 7/7/2 8/8/2
f 8/9/3 7/10/3 5/11/3 6/12/3
f 6/13/4 2/14/4 4/5/4 8/15/4
f 2/14/5 1/16/5 3/6/5 4/5/5
f 6/12/6 5/11/6 1/16/6 2/14/6
